# xmcd
#
# Track frame offsets:
# 150
# 17115
# 29862
# 46842
# 63177
# 81090
# 98152
# 113510
# 130427
# 146232
#
# Disc length: 2196 seconds
#
#
# Revision: 2
# Processed by: cddbd v1.5.1PL0 Copyright (c) Steve Scherf et al.
# Submitted via: FreeRIP 2.40 
#
DISCID=8708920a
DTITLE=Allman Brothers Band - Still Rockin'
DYEAR=2000
DGENRE=Rock
TTITLE0=Angeline
TTITLE1=Famous Last Words
TTITLE2=Things You Used To Do
TTITLE3=Hell and High Water
TTITLE4=Brothers Of The Road
TTITLE5=Straight From The Heart
TTITLE6=I Beg Of You
TTITLE7=Leavin'
TTITLE8=Two Rights
TTITLE9=Keep On Keeoin' On
EXTD=BMG Special Products - 45702
EXTT0=
EXTT1=
EXTT2=
EXTT3=
EXTT4=
EXTT5=
EXTT6=
EXTT7=
EXTT8=
EXTT9=
PLAYORDER=
